Mulholland.Drive.2001.720p.x264.aac.mp4.anoXmous

Format                           : MPEG-4
Format profile                   : Base Media
Codec ID                         : isom
File size                        : 700 MiB
Duration                         : 2h 26mn
Overall bit rate mode            : Variable
Overall bit rate                 : 668 Kbps
Encoded date                     : UTC 2011-12-06 01:31:53
Tagged date                      : UTC 2011-12-06 01:31:53

Video
ID                               : 1
Format                           : AVC
Format/Info                      : Advanced Video Codec
Format profile                   : High@L4.1
Format settings, CABAC           : Yes
Format settings, ReFrames        : 4 frames
Codec ID                         : avc1
Codec ID/Info                    : Advanced Video Coding
Duration                         : 2h 26mn
Bit rate                         : 597 Kbps
Maximum bit rate                 : 4 043 Kbps
Width                            : 1 278 pixels
Height                           : 688 pixels
Display aspect ratio             : 1.850
Frame rate mode                  : Constant
Frame rate                       : 23.976 fps
Color space                      : YUV
Chroma subsampling               : 4:2:0
Bit depth                        : 8 bits
Scan type                        : Progressive
Bits/(Pixel*Frame)               : 0.028
Stream size                      : 626 MiB (89%)
Writing library                  : x264 core 119 r2106 07efeb4


Audio
ID                               : 2
Format                           : AAC
Format/Info                      : Advanced Audio Codec
Format profile                   : LC
Codec ID                         : 40
Duration                         : 2h 26mn
Bit rate mode                    : Variable
Bit rate                         : 67.6 Kbps
Maximum bit rate                 : 92.9 Kbps
Channel(s)                       : 2 channels
Channel positions                : Front: L R
Sampling rate                    : 48.0 KHz 
Compression mode                 : Lossy
Stream size                      : 70.9 MiB (10%)
Language                         : English

                              SUB:
Mulholland.Drive.2001.720p.x264.aac.mp4.anoXmous_swe.srt
 
http://www.imdb.com/title/tt0166924/

+++++++++ This work very fine with PSP and XBOX :) +++++++++++	
